<svg xmlns="http://www.w3.org/2000/svg" xmlns:xlink="http://www.w3.org/1999/xlink" version="1.1" x="0px" y="0px" viewBox="0 0 100 125" style="enable-background:new 0 0 100 100;" xml:space="preserve"><g><path style="fill:#333333;" d="M24.1591797,18.7216797c-1.8955078,3.3256836-3.6435547,7.5844727-4.7402344,10.4624023   c4.6425781-3.7998047,9.7275391-8.8115234,9.7880859-8.8720703c0.3105469-0.3061523,0.78125-0.3754883,1.1679688-0.1743164   c6.234375,3.2696533,9.2027588,6.9389038,10.1344604,8.2644653c0.8432007-1.0593872,2.0210571-2.3771362,3.2893677-3.2903442   c0.4492188-0.3227539,1.0742188-0.2207031,1.3955078,0.2270508c0.3222656,0.4482422,0.2207031,1.0732422-0.2275391,1.3959961   C43.1289062,28.0581055,41.40625,30.5039062,41,31.0996094c-0.7802734,3.140686-1.135437,7.1998901-1.2974854,10.1179199   c0.2662354-0.3605347,0.5410767-0.7158813,0.8326416-1.0598145c0.3554688-0.4199219,0.9873047-0.4755859,1.4091797-0.1162109   c0.421875,0.3569336,0.4736328,0.9882812,0.1162109,1.4091797c-4.2104492,4.9669189-5.5144653,12.255188-5.8991089,15.4869995   c1.4760132-0.5964355,3.4488525-1.2405396,5.9830933-1.7560425c0.0943604-0.0194702,0.1856689-0.0081177,0.2771606-0.0007935   c0.1608276-1.1780396,0.368103-2.276123,0.6378784-3.1261597c0.1035156-0.3271484,0.3681641-0.578125,0.7001953-0.6650391   c0.2939453-0.0776367,7.2949219-1.8754883,14.4287109-0.6005859c0.2197266,0.0390625,0.4199219,0.1508789,0.5693359,0.3168945   c0.0627441,0.0700684,0.9424438,1.093689,1.7561646,3.5891724c0.1365356-0.0477905,0.2826538-0.072876,0.4381714-0.0545044   c1.7522583,0.1873779,3.5722656,0.456543,5.4124756,0.7620239c0.2165527-5.2470703-1.4234619-9.1074219-1.9476318-10.1912231   c-0.0830078-0.1723633-0.2119141-0.3413086-0.4033203-0.5317383c-3.8193359-3.7856445-5.3994141-12.4121094-5.6210938-13.7265625   c-3.8671875-7.6845703-9.7128906-11.3564453-9.7714844-11.3930664c-0.0527344-0.0322266-0.1015625-0.0693359-0.1474609-0.1108398   c-3.9472656-3.5888672-9.9746094-6.0673828-10.9726562-6.4633789   C31.5283203,12.7070312,25.1083984,17.9208984,24.1591797,18.7216797z"/><path style="fill:#333333;" d="M89.7685547,65.78125c-1.6347656-1.0561523-6.7744141,1.4946289-12.2119141,4.1943359   c-3.0458984,1.512207-6.4990234,3.2260742-10.1054688,4.7265625c-5.2861328,2.199707-11.7421875,3.0664062-18.2988281,3.0664062   c-10.7832031,0-21.8378906-2.3442383-28.4130859-4.9575195c-5.7353516-2.2802734-7.3808594-1.2104492-7.8222656-0.6445312   c-0.5178223,0.6630249-0.3876953,1.772583-0.0452271,2.5170898c3.7092285,6.5899048,13.8227539,17.3398438,40.3128052,17.3398438   c28.3218994,0,35.9510498-12.8016357,37.2752686-23.8106079C90.4970703,66.9240112,90.2662354,66.1026611,89.7685547,65.78125z"/><path style="fill:#333333;" d="M41.890686,62.7670288c0.0256348-1.1675415,0.0983887-3.338501,0.3007202-5.5454102   c-4.6651001,0.9955444-7.2345581,2.4343872-7.9921875,2.9136353c-0.5780029,1.8242798-0.6824951,3.6576538-0.685791,4.7164307   C35.2786255,64.22052,38.0508423,63.4064941,41.890686,62.7670288z"/><path style="fill:#333333;" d="M57.4433594,52.690918c-5.4746094-0.8847656-10.9199219,0.1303711-12.6289062,0.5053711   c-0.6596069,2.5996094-0.8569946,7.1260376-0.9145508,9.2672729c4.1976318-0.5700684,9.4746704-0.8980713,15.8851929-0.6271973   C59.3656616,56.1320801,57.9525757,53.4755249,57.4433594,52.690918z"/><path style="fill:#333333;" d="M21.4775391,70.9526367c10.2666016,4.0805664,31.7333984,7.5078125,45.2060547,1.902832   c3.5449219-1.4746094,6.9658203-3.1728516,9.9833984-4.6713867c1.8209229-0.9036865,3.5-1.7351074,5.0394897-2.4408569   c-3.0269165,0.1260376-6.3394775-0.0099487-9.5131226-0.7266235c-6.3583984-0.9135742-11.9248047-1.2646484-16.7246094-1.2646484   c-15.8632812,0-23.3613281,3.8364258-23.4580078,3.887207c-0.296875,0.1282959-4.8002319,1.9866943-11.6014404,2.9254761   C20.7629395,70.6911011,21.1057739,70.8048706,21.4775391,70.9526367z"/><path style="fill:#333333;" d="M61.0539551,56.6691284c0.3266602,1.4238892,0.5965576,3.1669312,0.7393799,5.270813   c2.5279541,0.1515503,5.2119751,0.390625,8.0739136,0.7473755c-0.8050537-3.3586426-1.5968018-4.6155396-1.8877563-4.9885864   C65.6131592,57.2581177,63.289856,56.9169312,61.0539551,56.6691284z"/></g></svg>